
<svg version="1.0" xmlns="http://www.w3.org/2000/svg"
 width="392.000000pt" height="263.000000pt" viewBox="0 0 392.000000 263.000000"
 preserveAspectRatio="xMidYMid meet">

<g transform="translate(0.000000,263.000000) scale(0.100000,-0.100000)"
fill="#000000" stroke="none">
<path d="M1810 2594 c-327 -42 -590 -155 -828 -357 -246 -208 -422 -508 -494
-840 -34 -162 -28 -545 11 -614 5 -11 74 46 269 221 145 130 270 236 280 235
9 0 60 -13 112 -28 l95 -28 3 201 3 201 171 120 c93 66 174 122 179 123 5 2 9
-157 9 -372 l0 -375 43 -11 c23 -6 55 -15 71 -20 16 -6 31 -10 32 -10 2 0 4
228 5 508 l0 507 171 120 c93 66 174 122 179 123 5 2 9 -109 9 -257 0 -144 -3
-261 -6 -261 -3 0 -20 11 -38 25 -18 14 -38 25 -45 25 -6 0 -54 -30 -106 -67
l-95 -66 0 -309 c0 -171 3 -308 8 -306 4 2 19 10 35 17 l27 14 0 278 0 277 65
46 65 45 0 -289 0 -290 100 50 100 50 0 288 0 287 178 126 177 126 3 -319 c1
-175 5 -318 9 -318 3 0 50 23 104 52 l98 52 318 -314 317 -315 10 50 c11 60
-6 302 -30 415 -59 286 -194 532 -408 746 -221 221 -459 350 -761 414 -98 20
-361 34 -445 24z m-649 -559 c16 -9 55 -15 93 -15 l65 0 -49 -46 c-53 -50 -72
-102 -63 -179 l4 -40 -36 43 c-51 58 -84 73 -163 73 l-66 0 37 32 c63 53 77
83 77 161 l0 70 36 -42 c20 -24 49 -49 65 -57z m-198 -355 c-8 -30 4 -65 34
-100 l26 -32 -29 2 c-54 4 -66 0 -95 -31 l-29 -31 0 46 c0 36 -6 52 -29 78
l-29 33 44 0 c34 0 50 7 71 28 33 32 43 34 36 7z"/>
<path d="M2765 1472 c-6 -5 -228 -121 -495 -257 l-485 -247 -45 10 c-25 5 -97
24 -160 42 -63 18 -128 36 -145 40 -34 9 -303 84 -351 99 -30 9 -36 5 -171
-118 -186 -168 -628 -569 -667 -604 -23 -21 -17 -19 24 9 59 41 314 227 545
398 77 56 163 119 191 139 l51 37 89 -63 c49 -35 185 -134 302 -220 l213 -157
110 0 110 0 126 103 c69 56 167 136 217 177 51 41 166 136 256 210 90 74 198
163 239 196 l75 62 45 -38 c45 -36 378 -307 591 -479 58 -47 141 -114 185
-149 45 -37 -114 127 -364 374 -244 241 -451 440 -460 442 -9 1 -21 -1 -26 -6z"/>
<path d="M970 675 l0 -95 85 0 85 0 0 95 0 95 -85 0 -85 0 0 -95z"/>
<path d="M2710 675 l0 -96 88 3 87 3 0 90 0 90 -87 3 -88 3 0 -96z"/>
<path d="M78 343 c-14 -3 -15 -9 -6 -34 14 -42 5 -178 -13 -190 -9 -6 8 -9 46
-8 51 0 56 2 38 11 -19 9 -23 19 -23 60 0 44 2 48 25 48 15 0 31 -10 42 -26
16 -25 16 -28 0 -55 -15 -28 -15 -29 3 -29 50 0 69 77 25 106 l-25 16 22 17
c33 27 18 67 -30 80 -37 11 -73 12 -104 4z m84 -15 c8 -7 18 -20 21 -29 7 -22
-20 -59 -44 -59 -16 0 -19 7 -19 50 0 52 11 62 42 38z"/>
<path d="M517 331 c56 -35 69 -145 22 -192 -26 -26 0 -25 34 2 39 30 53 85 34
131 -17 40 -45 62 -92 72 l-30 7 32 -20z"/>
<path d="M896 332 c17 -11 36 -34 44 -51 18 -45 8 -121 -20 -143 -17 -14 -19
-18 -6 -18 31 0 77 53 82 95 8 64 -32 115 -101 129 l-30 7 31 -19z"/>
<path d="M1143 338 c25 -13 25 -203 0 -216 -12 -7 -2 -10 35 -10 45 0 49 2 37
15 -8 8 -15 32 -15 54 0 53 21 51 61 -7 24 -36 29 -48 18 -54 -7 -5 12 -8 47
-8 41 0 53 2 38 8 -12 5 -40 36 -63 71 l-41 62 23 31 c13 17 38 38 55 47 l30
16 -46 0 c-26 0 -41 -2 -34 -4 20 -7 13 -26 -27 -72 -22 -26 -42 -41 -49 -37
-17 10 -15 82 3 99 12 13 8 15 -37 15 -37 0 -47 -3 -35 -10z"/>
<path d="M1494 338 c25 -14 24 -203 -1 -217 -13 -7 -2 -9 42 -9 33 1 52 3 43
5 -16 4 -18 18 -18 108 0 86 3 106 16 113 11 6 -1 9 -41 9 -40 0 -52 -3 -41
-9z"/>
<path d="M1723 339 c14 -8 17 -25 17 -104 0 -69 -4 -97 -15 -108 -12 -13 -9
-15 26 -15 39 -1 39 0 19 16 -19 15 -21 26 -18 97 l3 80 75 -92 c41 -51 81
-93 88 -93 9 0 12 28 12 105 0 86 3 106 17 113 12 7 5 9 -25 8 -27 0 -36 -3
-27 -9 11 -6 15 -27 15 -78 0 -41 -4 -68 -9 -64 -5 3 -36 38 -68 78 -51 62
-63 72 -93 74 -27 1 -31 -1 -17 -8z"/>
<path d="M2236 336 c18 -8 37 -22 43 -33 9 -16 10 -15 11 10 0 19 -5 27 -17
27 -10 0 -29 3 -43 6 -20 4 -19 2 6 -10z"/>
<path d="M2468 344 c-14 -4 -15 -10 -6 -35 14 -40 5 -178 -12 -189 -7 -4 11
-8 40 -8 39 0 49 3 37 10 -14 7 -17 26 -17 108 0 54 4 102 10 105 16 10 47
-13 54 -41 5 -20 1 -35 -15 -57 -18 -25 -19 -29 -5 -24 10 4 21 7 26 7 36 0
53 75 22 103 -18 16 -104 30 -134 21z"/>
<path d="M2780 341 c-17 -5 -21 -9 -12 -15 8 -5 12 -37 12 -101 0 -78 -3 -96
-17 -104 -12 -6 -2 -9 37 -9 41 -1 51 2 38 9 -13 7 -18 23 -18 54 0 57 22 60
49 7 23 -46 37 -58 74 -68 l29 -7 -36 47 c-39 52 -43 67 -22 85 39 32 22 86
-31 100 -42 12 -66 12 -103 2z m90 -21 c37 -37 21 -90 -27 -90 -21 0 -23 4
-23 55 0 61 14 71 50 35z"/>
<path d="M3105 338 c12 -7 15 -32 15 -131 0 -67 -4 -128 -8 -135 -5 -7 -17
-11 -28 -10 -10 2 -20 -1 -21 -7 -4 -20 53 -5 75 20 20 24 22 36 22 135 0 82
4 112 15 123 12 13 8 15 -36 14 -33 -1 -45 -4 -34 -9z"/>
<path d="M3467 338 c18 -7 39 -22 47 -33 15 -19 15 -19 16 8 0 21 -5 27 -22
27 -13 0 -34 3 -48 5 -18 4 -15 1 7 -7z"/>
<path d="M3660 341 c0 -5 -3 -17 -7 -27 -5 -13 -1 -12 16 5 13 13 32 21 44 19
21 -3 22 -9 25 -106 3 -99 2 -103 -20 -111 -17 -6 -5 -9 42 -9 47 0 59 3 42 9
-22 8 -23 12 -20 111 3 96 4 103 24 106 12 2 28 -4 37 -12 16 -16 27 -11 27
11 0 10 -24 13 -105 13 -58 0 -105 -4 -105 -9z"/>
<path d="M418 320 c-58 -45 -61 -129 -7 -174 17 -14 37 -26 44 -26 7 0 22 -3
32 -6 10 -3 4 3 -13 14 -33 21 -54 66 -54 114 0 33 23 84 42 91 9 4 8 6 -3 6
-9 1 -28 -8 -41 -19z"/>
<path d="M798 319 c-38 -28 -53 -87 -34 -133 16 -39 46 -61 96 -71 l35 -6 -35
18 c-64 33 -78 150 -23 193 22 17 23 20 7 20 -11 0 -31 -10 -46 -21z"/>
<path d="M2133 320 c-61 -37 -72 -108 -25 -160 24 -28 106 -59 119 -46 2 2 -9
7 -25 11 -43 9 -64 38 -70 95 -5 55 13 95 51 110 21 8 21 9 2 9 -11 1 -34 -8
-52 -19z"/>
<path d="M3354 306 c-28 -28 -34 -41 -34 -77 0 -47 19 -79 57 -98 42 -21 53
-12 22 18 -25 25 -29 37 -29 81 0 44 4 56 29 81 27 26 27 29 9 29 -11 0 -35
-15 -54 -34z"/>
<path d="M2228 203 c21 -4 24 -9 20 -44 -3 -37 -2 -39 24 -39 26 0 27 2 21 32
-5 23 -2 34 12 45 17 11 12 13 -41 12 -32 -1 -48 -4 -36 -6z"/>
<path d="M3520 160 c-6 -11 -21 -25 -33 -30 -21 -8 -20 -9 6 -9 21 -1 30 5 38
25 12 33 5 43 -11 14z"/>
</g>
</svg>
